<mxfile host="65bd71144e">
    <diagram id="3fQTyVDqL0tVyFTWt5HO" name="Page-1">
        <mxGraphModel dx="331" dy="901" grid="1" gridSize="10" guides="1" tooltips="1" connect="1" arrows="1" fold="1" page="1" pageScale="1" pageWidth="827" pageHeight="1169" math="0" shadow="0">
            <root>
                <mxCell id="0"/>
                <mxCell id="1" parent="0"/>
                <mxCell id="2" value="Raspberry Pi" style="rounded=0;whiteSpace=wrap;html=1;align=left;verticalAlign=top;fillColor=#FAFAFA;" parent="1" vertex="1">
                    <mxGeometry x="80" y="120" width="460" height="280" as="geometry"/>
                </mxCell>
                <mxCell id="3" value="Docker" style="rounded=0;whiteSpace=wrap;html=1;align=left;verticalAlign=top;fillColor=#E6E6E6;" parent="1" vertex="1">
                    <mxGeometry x="100" y="160" width="220" height="220" as="geometry"/>
                </mxCell>
                <mxCell id="8" style="edgeStyle=none;html=1;exitX=0.5;exitY=1;exitDx=0;exitDy=0;entryX=0.5;entryY=0;entryDx=0;entryDy=0;fontColor=#EEEEEE;startArrow=classic;startFill=1;strokeWidth=3;" parent="1" source="4" target="5" edge="1">
                    <mxGeometry relative="1" as="geometry"/>
                </mxCell>
                <mxCell id="13" style="edgeStyle=none;html=1;exitX=0;exitY=0.5;exitDx=0;exitDy=0;entryX=1;entryY=0.5;entryDx=0;entryDy=0;fontColor=#000000;startArrow=classic;startFill=1;endArrow=classic;endFill=1;strokeWidth=3;" parent="1" source="4" target="12" edge="1">
                    <mxGeometry relative="1" as="geometry"/>
                </mxCell>
                <mxCell id="4" value="Grafana" style="rounded=0;whiteSpace=wrap;html=1;align=left;verticalAlign=top;" parent="1" vertex="1">
                    <mxGeometry x="120" y="200" width="180" height="60" as="geometry"/>
                </mxCell>
                <mxCell id="5" value="InfluxDB" style="rounded=0;whiteSpace=wrap;html=1;align=left;verticalAlign=top;" parent="1" vertex="1">
                    <mxGeometry x="120" y="300" width="180" height="60" as="geometry"/>
                </mxCell>
                <mxCell id="9" style="edgeStyle=none;html=1;exitX=0;exitY=0.5;exitDx=0;exitDy=0;fontColor=#EEEEEE;startArrow=none;startFill=0;strokeWidth=3;entryX=1;entryY=0.5;entryDx=0;entryDy=0;endArrow=classic;endFill=1;" parent="1" source="7" target="5" edge="1">
                    <mxGeometry relative="1" as="geometry"/>
                </mxCell>
                <mxCell id="7" value="Script" style="rounded=0;whiteSpace=wrap;html=1;align=left;verticalAlign=top;" parent="1" vertex="1">
                    <mxGeometry x="340" y="300" width="180" height="60" as="geometry"/>
                </mxCell>
                <mxCell id="11" style="edgeStyle=none;html=1;exitX=0;exitY=0.5;exitDx=0;exitDy=0;entryX=1;entryY=0.5;entryDx=0;entryDy=0;fontColor=#EEEEEE;startArrow=classic;startFill=1;endArrow=classic;endFill=1;strokeWidth=3;" parent="1" source="10" target="7" edge="1">
                    <mxGeometry relative="1" as="geometry"/>
                </mxCell>
                <mxCell id="10" value="AS7265x" style="rounded=0;whiteSpace=wrap;html=1;align=left;verticalAlign=top;fillColor=#FAFAFA;" parent="1" vertex="1">
                    <mxGeometry x="560" y="280" width="100" height="100" as="geometry"/>
                </mxCell>
                <mxCell id="12" value="Port 3000" style="ellipse;whiteSpace=wrap;html=1;fontColor=#000000;fillColor=#FAFAFA;" parent="1" vertex="1">
                    <mxGeometry x="20" y="210" width="60" height="40" as="geometry"/>
                </mxCell>
                <mxCell id="14" value="Port 8086" style="ellipse;whiteSpace=wrap;html=1;fontColor=#000000;fillColor=#FAFAFA;" parent="1" vertex="1">
                    <mxGeometry x="20" y="310" width="60" height="40" as="geometry"/>
                </mxCell>
                <mxCell id="15" style="edgeStyle=none;html=1;exitX=0;exitY=0.5;exitDx=0;exitDy=0;entryX=1;entryY=0.5;entryDx=0;entryDy=0;fontColor=#000000;startArrow=classic;startFill=1;endArrow=classic;endFill=1;strokeWidth=3;" edge="1" parent="1" source="5" target="14">
                    <mxGeometry relative="1" as="geometry">
                        <mxPoint x="130" y="240" as="sourcePoint"/>
                        <mxPoint x="90" y="240" as="targetPoint"/>
                    </mxGeometry>
                </mxCell>
            </root>
        </mxGraphModel>
    </diagram>
</mxfile>